<?xml version="1.0" encoding="UTF-8" standalone="no"?>
<!-- Created with Inkscape (http://www.inkscape.org/) -->

<svg
   xmlns:dc="http://purl.org/dc/elements/1.1/"
   xmlns:cc="http://creativecommons.org/ns#"
   xmlns:rdf="http://www.w3.org/1999/02/22-rdf-syntax-ns#"
   xmlns:svg="http://www.w3.org/2000/svg"
   xmlns="http://www.w3.org/2000/svg"
   xmlns:sodipodi="http://sodipodi.sourceforge.net/DTD/sodipodi-0.dtd"
   xmlns:inkscape="http://www.inkscape.org/namespaces/inkscape"
   width="181"
   height="30"
   viewBox="0 0 181 30.000001"
   id="svg2"
   version="1.1"
   inkscape:version="0.91 r13725"
   sodipodi:docname="logo.svg">
  <defs
     id="defs4">
    <filter
       inkscape:collect="always"
       style="color-interpolation-filters:sRGB"
       id="filter4220"
       x="-0.0087269128"
       width="1.0174538"
       y="-0.019201742"
       height="1.0384035">
      <feGaussianBlur
         inkscape:collect="always"
         stdDeviation="0.22402033"
         id="feGaussianBlur4222" />
    </filter>
  </defs>
  <sodipodi:namedview
     id="base"
     pagecolor="#ffffff"
     bordercolor="#666666"
     borderopacity="1.0"
     inkscape:pageopacity="0.0"
     inkscape:pageshadow="2"
     inkscape:zoom="1.979899"
     inkscape:cx="-0.97805599"
     inkscape:cy="-94.855807"
     inkscape:document-units="px"
     inkscape:current-layer="layer1"
     showgrid="false"
     showguides="false"
     units="px"
     inkscape:window-width="1600"
     inkscape:window-height="827"
     inkscape:window-x="0"
     inkscape:window-y="27"
     inkscape:window-maximized="1" />
  <metadata
     id="metadata7">
    <rdf:RDF>
      <cc:Work
         rdf:about="">
        <dc:format>image/svg+xml</dc:format>
        <dc:type
           rdf:resource="http://purl.org/dc/dcmitype/StillImage" />
        <dc:title />
      </cc:Work>
    </rdf:RDF>
  </metadata>
  <g
     inkscape:label="Layer 1"
     inkscape:groupmode="layer"
     id="layer1"
     transform="translate(0,-1022.3622)">
    <g
       id="g4150"
       style="fill:#cccccc;fill-opacity:1">
      <path
         d="m 0.607715,1023.715 0,28 4.72,0 0,-28 -4.72,0 z"
         style="font-style:normal;font-variant:normal;font-weight:normal;font-stretch:normal;font-size:medium;line-height:125%;font-family:Montserrat;-inkscape-font-specification:Montserrat;letter-spacing:0px;word-spacing:0px;fill:#cccccc;fill-opacity:1;stroke:none;stroke-width:1px;stroke-linecap:butt;stroke-linejoin:miter;stroke-opacity:1"
         id="path4237"
         inkscape:connector-curvature="0" />
      <path
         d="m 29.75709,1030.555 1.96,-4.16 c -2.6,-1.72 -6.16,-2.88 -9.8,-2.88 -6.08,0 -10.2,3 -10.2,7.8 0,9.96 15.12,6.48 15.12,12.72 0,2.16 -1.96,3.4 -5.24,3.4 -3,0 -6.6,-1.44 -9.48,-4.08 l -2.04,4.08 c 2.88,2.64 7.04,4.44 11.44,4.44 6.16,0 10.56,-3.08 10.56,-8.08 0.04,-10.08 -15.08,-6.8 -15.08,-12.92 0,-1.88 1.8,-2.92 4.56,-2.92 2.12,0 5.16,0.76 8.2,2.6 z"
         style="font-style:normal;font-variant:normal;font-weight:normal;font-stretch:normal;font-size:medium;line-height:125%;font-family:Montserrat;-inkscape-font-specification:Montserrat;letter-spacing:0px;word-spacing:0px;fill:#cccccc;fill-opacity:1;stroke:none;stroke-width:1px;stroke-linecap:butt;stroke-linejoin:miter;stroke-opacity:1"
         id="path4239"
         inkscape:connector-curvature="0" />
      <path
         d="m 54.60084,1030.555 1.96,-4.16 c -2.6,-1.72 -6.16,-2.88 -9.8,-2.88 -6.08,0 -10.2,3 -10.2,7.8 0,9.96 15.12,6.48 15.12,12.72 0,2.16 -1.96,3.4 -5.24,3.4 -3,0 -6.6,-1.44 -9.48,-4.08 l -2.04,4.08 c 2.88,2.64 7.04,4.44 11.44,4.44 6.16,0 10.56,-3.08 10.56,-8.08 0.04,-10.08 -15.08,-6.8 -15.08,-12.92 0,-1.88 1.8,-2.92 4.56,-2.92 2.12,0 5.16,0.76 8.2,2.6 z"
         style="font-style:normal;font-variant:normal;font-weight:normal;font-stretch:normal;font-size:medium;line-height:125%;font-family:Montserrat;-inkscape-font-specification:Montserrat;letter-spacing:0px;word-spacing:0px;fill:#cccccc;fill-opacity:1;stroke:none;stroke-width:1px;stroke-linecap:butt;stroke-linejoin:miter;stroke-opacity:1"
         id="path4241"
         inkscape:connector-curvature="0" />
      <path
         d="m 66.56459,1040.115 0,-16.4 -4.72,0 0,16.4 c 0,7.32 4.64,11.8 12.2,11.8 7.56,0 12.16,-4.48 12.16,-11.8 l 0,-16.4 -4.72,0 0,16.4 c 0,4.76 -2.84,7.56 -7.4,7.56 -4.6,0 -7.52,-2.84 -7.52,-7.56 z"
         style="font-style:normal;font-variant:normal;font-weight:normal;font-stretch:normal;font-size:medium;line-height:125%;font-family:Montserrat;-inkscape-font-specification:Montserrat;letter-spacing:0px;word-spacing:0px;fill:#cccccc;fill-opacity:1;stroke:none;stroke-width:1px;stroke-linecap:butt;stroke-linejoin:miter;stroke-opacity:1"
         id="path4243"
         inkscape:connector-curvature="0" />
      <path
         d="m 92.951465,1023.715 0,28 20.480005,0 0,-4.24 -15.760005,0 0,-7.72 13.679995,0 0,-4.2 -13.679995,0 0,-7.6 15.279995,0 0,-4.24 -19.999995,0 z"
         style="font-style:normal;font-variant:normal;font-weight:normal;font-stretch:normal;font-size:medium;line-height:125%;font-family:Montserrat;-inkscape-font-specification:Montserrat;letter-spacing:0px;word-spacing:0px;fill:#cccccc;fill-opacity:1;stroke:none;stroke-width:1px;stroke-linecap:butt;stroke-linejoin:miter;stroke-opacity:1"
         id="path4245"
         inkscape:connector-curvature="0" />
    </g>
    <g
       id="g4215"
       style="fill:#808080;fill-opacity:1;filter:url(#filter4220)">
      <path
         d="m 118.60146,1023.715 0,28 6.32,0 0,-10.6 12.64,0 0,-5.28 -12.64,0 0,-6.88 13.76,0 0.04,-5.24 -20.12,0 z"
         style="font-style:normal;font-variant:normal;font-weight:600;font-stretch:normal;font-size:medium;line-height:125%;font-family:Montserrat;-inkscape-font-specification:'Montserrat Semi-Bold';letter-spacing:0px;word-spacing:0px;fill:#808080;fill-opacity:1;stroke:none;stroke-width:1px;stroke-linecap:butt;stroke-linejoin:miter;stroke-opacity:1"
         id="path4247"
         inkscape:connector-curvature="0" />
      <path
         d="m 142.42959,1023.715 0,28 6.32,0 0,-28 -6.32,0 z"
         style="font-style:normal;font-variant:normal;font-weight:600;font-stretch:normal;font-size:medium;line-height:125%;font-family:Montserrat;-inkscape-font-specification:'Montserrat Semi-Bold';letter-spacing:0px;word-spacing:0px;fill:#808080;fill-opacity:1;stroke:none;stroke-width:1px;stroke-linecap:butt;stroke-linejoin:miter;stroke-opacity:1"
         id="path4249"
         inkscape:connector-curvature="0" />
      <path
         d="m 152.84959,1023.715 9.36,13.68 -10.04,14.32 7.4,0 6.48,-9.32 6.6,9.32 7.56,0 -10.12,-14.6 9.32,-13.4 -7.48,0 -5.88,8.56 -5.84,-8.56 -7.36,0 z"
         style="font-style:normal;font-variant:normal;font-weight:600;font-stretch:normal;font-size:medium;line-height:125%;font-family:Montserrat;-inkscape-font-specification:'Montserrat Semi-Bold';letter-spacing:0px;word-spacing:0px;fill:#808080;fill-opacity:1;stroke:none;stroke-width:1px;stroke-linecap:butt;stroke-linejoin:miter;stroke-opacity:1"
         id="path4251"
         inkscape:connector-curvature="0" />
    </g>
  </g>
</svg>
